<svg xmlns="http://www.w3.org/2000/svg" viewBox="0 0 64 64"><g id="Layer_68" data-name="Layer 68"><path d="M26.2,38.65a1.5,1.5,0,0,0,2.93.21c1.64-6.08,6.13-10.21,11.27-10.43v3.64a1.51,1.51,0,0,0,2.5,1.12l10.1-9a1.5,1.5,0,0,0,0-2.23l-10.1-9A1.51,1.51,0,0,0,40.4,14v3.72C31.51,18.19,24.74,28.59,26.2,38.65Z" id="id_101" style="fill: rgb(255, 255, 255);"></path><path d="M52,32a1.5,1.5,0,0,0-1.5,1.5V47.12c0,.75-.83,1.38-1.81,1.38H15.31c-1,0-1.81-.63-1.81-1.38V22c0-.74.83-1.38,1.81-1.38h9.22a1.5,1.5,0,0,0,0-3H15.31A4.62,4.62,0,0,0,10.5,22V47.12a4.62,4.62,0,0,0,4.81,4.38H48.69a4.62,4.62,0,0,0,4.81-4.38V33.5A1.5,1.5,0,0,0,52,32Z" id="id_102" style="fill: rgb(255, 255, 255);"></path></g></svg>