<?xml version="1.0" encoding="UTF-8"?>
<svg xmlns="http://www.w3.org/2000/svg" xmlns:xlink="http://www.w3.org/1999/xlink" viewBox="0 0 144 144" width="144px" height="144px">
<g id="surface17371426">
<path style=" stroke:none;fill-rule:nonzero;fill:rgb(20.392157%,59.607846%,85.882354%);fill-opacity:1;" d="M 26.683594 76.09375 L 13.972656 87.71875 C 11.273438 90.207031 11.425781 94.519531 14.296875 96.8125 C 14.296875 96.8125 18.265625 100.507812 19.703125 101.535156 C 21.910156 103.109375 24.8125 103.289062 27 101.6875 L 42.171875 90.21875 Z M 26.683594 76.09375 "/>
<path style=" stroke:none;fill-rule:nonzero;fill:rgb(20.392157%,59.607846%,85.882354%);fill-opacity:1;" d="M 88.03125 20.054688 C 76.101562 30.941406 47.054688 57.472656 47.054688 57.472656 L 31.164062 72 L 31.132812 72.03125 L 47.039062 86.539062 L 47.054688 86.53125 L 66.277344 72 L 93 51.804688 L 93.046875 22.285156 C 93.050781 19.675781 89.960938 18.296875 88.03125 20.054688 Z M 88.03125 20.054688 "/>
<path style=" stroke:none;fill-rule:nonzero;fill:rgb(41.568628%,72.549021%,93.333334%);fill-opacity:1;" d="M 87.976562 123.867188 C 89.902344 125.621094 93 124.257812 93 121.648438 L 93 92.199219 L 66.277344 72 L 47.058594 57.472656 L 27 42.3125 C 24.8125 40.710938 21.910156 40.890625 19.703125 42.464844 C 18.265625 43.492188 14.296875 47.1875 14.296875 47.1875 C 11.425781 49.480469 11.273438 53.792969 13.972656 56.28125 L 31.164062 72 L 47.054688 86.527344 Z M 87.976562 123.867188 "/>
<path style=" stroke:none;fill-rule:nonzero;fill:rgb(20.392157%,59.607846%,85.882354%);fill-opacity:1;" d="M 126.058594 24.871094 L 99.601562 12.449219 L 99.601562 12.476562 C 98.167969 11.878906 96.402344 12.089844 95.175781 13.480469 L 95.015625 13.621094 C 95.074219 13.675781 95.140625 13.714844 95.191406 13.773438 C 98.1875 12.371094 102 14.449219 102 18.121094 L 102 125.839844 C 102 129.617188 97.96875 131.714844 94.933594 130.054688 C 94.882812 130.09375 94.832031 130.128906 94.78125 130.160156 L 95.179688 130.519531 C 96.40625 131.910156 98.171875 132.121094 99.605469 131.523438 L 99.601562 131.550781 L 126.058594 119.128906 C 129.628906 117.871094 132 114.480469 132 110.671875 L 132 33.328125 C 132 29.519531 129.628906 26.128906 126.058594 24.871094 Z M 126.058594 24.871094 "/>
</g>
</svg>
